<svg width="30" height="30" viewBox="0 0 30 30" xmlns="http://www.w3.org/2000/svg" xmlns:xlink="http://www.w3.org/1999/xlink">
    <defs>
        <path d="M26.25 23.75a1.25 1.25 0 1 1 0 2.5 1.25 1.25 0 0 1 0-2.5zm0-10a1.25 1.25 0 1 1 0 2.5 1.25 1.25 0 0 1 0-2.5zm0-10a1.25 1.25 0 1 1 0 2.5 1.25 1.25 0 0 1 0-2.5zM17.5 17.5a3.75 3.75 0 0 1 3.75-3.75h1.25a1.25 1.25 0 0 1 0 2.5h-1.25c-.69 0-1.25.56-1.25 1.25 0 .961-.361 1.838-.956 2.501.595.662.956 1.539.956 2.499 0 .69.56 1.25 1.25 1.25h1.25a1.25 1.25 0 0 1 0 2.5h-1.25a3.75 3.75 0 0 1-3.75-3.75c0-.69-.56-1.25-1.25-1.25H15a1.25 1.25 0 0 1 0-2.5h1.25c.69 0 1.25-.56 1.25-1.25zm5-13.75a1.25 1.25 0 0 1 0 2.5h-1.25c-.69 0-1.25.56-1.25 1.25a3.75 3.75 0 0 1-3.75 3.75H15c-.69 0-1.25.56-1.25 1.25 0 .961-.361 1.838-.956 2.501.595.662.956 1.539.956 2.499 0 .69.56 1.25 1.25 1.25a1.25 1.25 0 0 1 0 2.5 3.75 3.75 0 0 1-3.75-3.75c0-.69-.56-1.25-1.25-1.25H7.5a1.25 1.25 0 0 1 0-2.5H10c.69 0 1.25-.56 1.25-1.25A3.75 3.75 0 0 1 15 8.75h1.25c.69 0 1.25-.56 1.25-1.25a3.75 3.75 0 0 1 3.75-3.75h1.25zm-18.75 10a1.25 1.25 0 1 1 0 2.5 1.25 1.25 0 0 1 0-2.5z" id="12xsuapwha"/>
    </defs>
    <g fill="none" fill-rule="evenodd">
        <mask id="vtuiu2me9b" fill="#fff">
            <use xlink:href="#12xsuapwha"/>
        </mask>
        <g mask="url(#vtuiu2me9b)" fill="#FFF" fill-opacity=".85">
            <path d="M0 0h30v30H0z"/>
        </g>
    </g>
</svg>
