<svg width="30" height="30" viewBox="0 0 30 30" xmlns="http://www.w3.org/2000/svg" xmlns:xlink="http://www.w3.org/1999/xlink">
    <defs>
        <path d="M27.5 10v1.25H20V10h7.5zm-20 0v1.25H0V10h7.5zM26.25 0l1.25 1.25-2.431 2.5 2.431 2.5-1.25 1.25-2.5-2.51-2.5 2.51L20 6.25l2.569-2.5L20 1.25 21.25 0l2.5 2.503L26.25 0zm-25 0v7.5l5-3.75-5-3.75z" id="psauwiwoka"/>
        <path d="M1.25 10h7.5v1.25h-7.5V10zm2.5-5 4.997-5L10 1.25 3.75 7.5.625 4.375l1.25-1.25L3.75 5z" id="ww377ch3xc"/>
    </defs>
    <g fill="none" fill-rule="evenodd">
        <g transform="translate(1.25 10)">
            <mask id="olvll4fbpb" fill="#fff">
                <use xlink:href="#psauwiwoka"/>
            </mask>
            <g mask="url(#olvll4fbpb)" fill="#FFF" fill-opacity=".85">
                <path d="M-1.25-10h30v30h-30z"/>
            </g>
        </g>
        <g transform="translate(10 10)">
            <mask id="ldcc4sossd" fill="#fff">
                <use xlink:href="#ww377ch3xc"/>
            </mask>
            <g mask="url(#ldcc4sossd)" fill="#FFF" fill-opacity=".85">
                <path d="M-10-10h30v30h-30z"/>
            </g>
        </g>
    </g>
</svg>
