<svg width="24" height="24" viewBox="0 0 24 24" xmlns="http://www.w3.org/2000/svg" xmlns:xlink="http://www.w3.org/1999/xlink">
    <defs>
        <path d="M19.735 12.61c.018-.214.027-.415.027-.61 0-.196-.01-.399-.028-.61l1.466-1.225a.834.834 0 0 0 .27-.865 10.08 10.08 0 0 0-2.425-4.28.821.821 0 0 0-.888-.2l-1.775.68a7.6 7.6 0 0 0-1.03-.608l-.309-1.9a.83.83 0 0 0-.609-.673 9.453 9.453 0 0 0-4.868 0 .83.83 0 0 0-.609.672l-.308 1.9a7.615 7.615 0 0 0-1.031.607L5.844 4.82a.82.82 0 0 0-.888.198 10.067 10.067 0 0 0-2.425 4.28.833.833 0 0 0 .27.865l1.464 1.226a7.592 7.592 0 0 0-.027.61c0 .196.01.399.027.611L2.8 13.835a.833.833 0 0 0-.27.864 10.037 10.037 0 0 0 2.426 4.28.82.82 0 0 0 .887.199l1.775-.678c.33.23.674.435 1.03.607l.309 1.9c.052.327.292.59.61.671A9.69 9.69 0 0 0 12 22c.796 0 1.615-.108 2.433-.321a.823.823 0 0 0 .608-.672l.31-1.899a7.582 7.582 0 0 0 1.03-.608l1.776.679c.307.117.657.039.886-.2a10.08 10.08 0 0 0 2.426-4.28.838.838 0 0 0-.27-.864l-1.464-1.225zm-1.633 4.407-2-.764-.87.61a5.582 5.582 0 0 1-.756.447l-.932.453-.348 2.137A7.33 7.33 0 0 1 12 20c-.388 0-.788-.033-1.196-.101l-.348-2.14-.937-.453a5.46 5.46 0 0 1-.754-.445l-.87-.609-1.998.765a8.058 8.058 0 0 1-1.212-2.151l1.657-1.385-.084-1.033a4.84 4.84 0 0 1-.011-.733l.094-1.196-1.655-1.386a8.087 8.087 0 0 1 1.211-2.152l1.998.764.87-.608c.244-.171.498-.321.76-.448l.932-.454.346-2.136a7.298 7.298 0 0 1 2.393 0l.347 2.138.934.454a5.6 5.6 0 0 1 .76.448l.87.608 1.996-.765c.51.649.92 1.377 1.211 2.152l-1.658 1.386.085 1.033c.014.17.02.316.02.447 0 .136-.006.282-.02.448l-.083 1.03 1.656 1.388a8.095 8.095 0 0 1-1.212 2.151zM12 8.5c1.93 0 3.5 1.57 3.5 3.5 0 1.931-1.57 3.5-3.5 3.5S8.5 13.931 8.5 12c0-1.93 1.57-3.5 3.5-3.5zm0 2c-.827 0-1.5.673-1.5 1.5s.673 1.5 1.5 1.5 1.5-.673 1.5-1.5-.673-1.5-1.5-1.5z" id="l5tcb7j7ea"/>
    </defs>
    <g fill="none" fill-rule="evenodd">
        <mask id="6lya1dslxb" fill="#fff">
            <use xlink:href="#l5tcb7j7ea"/>
        </mask>
        <g mask="url(#6lya1dslxb)" fill="#FFF" fill-opacity=".3">
            <path d="M0 0h24v24H0z"/>
        </g>
    </g>
</svg>
